<?xml version="1.0" encoding="utf-8"?>
<svg width="143" height="242" viewBox="0 0 143 242" fill="none" xmlns="http://www.w3.org/2000/svg">
  <path d="M0 0L0 1.19019C18.5916 1.19019 37.0002 4.23828 54.1764 10.1604C71.3525 16.083 86.9592 24.7634 100.105 35.7061C113.251 46.6492 123.679 59.6401 130.794 73.9377C137.908 88.2354 141.57 103.559 141.57 119.035C141.57 134.51 137.908 149.834 130.794 164.132C123.679 178.43 113.251 191.421 100.105 202.364C86.9592 213.306 71.3525 221.987 54.1764 227.909C38.6957 233.247 22.2142 236.25 5.5 236.791L5.5 232.163L0.5 237.081L1.26685 237.836L1.27319 238.065C1.34814 238.064 1.4231 238.064 1.49817 238.063L5.5 242L5.5 237.982C22.4017 237.44 39.0699 234.406 54.7239 229.009C72.073 223.027 87.8376 214.259 101.117 203.206C114.395 192.152 124.929 179.03 132.115 164.587C139.301 150.146 143 134.667 143 119.035C143 103.403 139.301 87.9241 132.115 73.4824C124.929 59.04 114.395 45.918 101.117 34.8645C87.8376 23.811 72.073 15.0432 54.7239 9.06128C37.3743 3.0791 18.7788 0 0 0Z" fill="#FFC107" fill-rule="evenodd" />
</svg>