<?xml version="1.0" encoding="utf-8"?>
<svg width="302" height="305" viewBox="0 0 302 305" fill="none" xmlns="http://www.w3.org/2000/svg">
  <g>
    <path d="M43.934 106.066C57.8628 119.995 74.3987 131.044 92.5975 138.582C110.18 145.865 128.982 149.733 148 149.987L148 150C167.304 150 186.42 153.802 204.254 161.19C222.089 168.577 238.294 179.405 251.945 193.055C265.595 206.706 276.423 222.911 283.81 240.746C290.943 257.964 294.733 276.376 294.986 295L292 295L297 305L302 295L297.987 295C297.733 275.982 293.865 257.18 286.582 239.597C279.044 221.399 267.995 204.863 254.066 190.934C240.137 177.005 223.601 165.956 205.403 158.418C187.82 151.135 169.018 147.267 150 147.013L150 147C130.696 147 111.58 143.198 93.7455 135.81C75.9107 128.423 59.7055 117.595 46.0553 103.945C32.4051 90.2945 21.5771 74.0894 14.1897 56.2545C6.80228 38.4196 3 19.3043 3 0L0 0C0 19.6983 3.87988 39.2037 11.4181 57.4025C18.9563 75.6014 30.0052 92.1372 43.934 106.066Z" fill="#E29B39" fill-rule="evenodd" />
  </g>
</svg>